<?xml version="1.0" standalone="no"?>
<!DOCTYPE svg PUBLIC "-//W3C//DTD SVG 20010904//EN"
 "http://www.w3.org/TR/2001/REC-SVG-20010904/DTD/svg10.dtd">
<svg version="1.0" xmlns="http://www.w3.org/2000/svg"
 width="2400.000000pt" height="2400.000000pt" viewBox="0 0 2400.000000 2400.000000"
 preserveAspectRatio="xMidYMid meet">
<metadata>
Created by potrace 1.14, written by Peter Selinger 2001-2017
</metadata>
<g transform="translate(0.000000,2400.000000) scale(0.100000,-0.100000)"
fill="#000000" stroke="none">
<path d="M12667 21993 c-126 -166 -286 -415 -416 -648 -75 -133 -276 -533
-323 -640 -144 -330 -182 -420 -232 -545 -32 -80 -64 -158 -71 -175 -104 -253
-441 -1217 -505 -1450 -14 -50 -36 -122 -88 -295 -55 -179 -156 -528 -197
-680 -14 -52 -33 -120 -41 -150 -13 -45 -73 -270 -89 -330 -2 -8 -17 -69 -35
-135 -64 -250 -212 -848 -245 -995 -2 -8 -20 -85 -40 -170 -20 -85 -45 -195
-56 -245 -11 -49 -23 -99 -25 -110 -3 -11 -7 -31 -10 -45 -4 -22 -29 -137
-115 -525 -11 -49 -22 -103 -25 -120 -3 -16 -12 -61 -20 -100 -9 -38 -18 -81
-20 -95 -3 -14 -34 -169 -70 -345 -36 -176 -67 -336 -70 -355 -3 -19 -9 -53
-14 -75 -5 -22 -11 -53 -14 -70 -3 -16 -8 -41 -11 -55 -4 -20 -65 -347 -80
-435 -2 -11 -7 -33 -10 -50 -3 -16 -13 -68 -21 -115 -8 -47 -17 -94 -19 -105
-10 -54 -15 -83 -19 -110 -3 -16 -16 -93 -30 -170 -13 -77 -27 -156 -30 -175
-3 -19 -8 -46 -10 -60 -3 -14 -12 -70 -21 -125 -9 -55 -18 -102 -20 -105 -1
-3 -6 -30 -10 -60 -3 -30 -9 -73 -13 -95 l-7 -39 -44 114 c-75 197 -356 923
-381 985 -4 11 -15 36 -23 55 -9 19 -36 89 -62 155 -66 168 -283 700 -340 830
-7 17 -32 75 -55 130 -55 130 -81 189 -130 300 -12 28 -38 86 -57 130 -53 120
-150 334 -271 595 -62 136 -178 374 -304 625 -120 240 -155 308 -258 500 -21
39 -53 99 -73 135 -48 90 -89 166 -123 225 -60 107 -70 124 -100 176 -17 30
-43 77 -59 104 -15 28 -65 111 -109 185 -45 74 -83 140 -85 145 -2 6 -18 33
-36 60 -18 28 -68 106 -110 175 -152 244 -492 756 -548 825 -4 6 -37 51 -72
100 -136 192 -250 344 -258 344 -4 1 -5 -14 -2 -31 3 -18 7 -46 10 -63 3 -16
8 -54 11 -84 3 -30 7 -62 9 -70 1 -9 6 -41 10 -71 3 -30 8 -66 10 -80 9 -61
25 -193 30 -255 6 -61 15 -141 20 -175 2 -14 6 -56 10 -95 3 -38 8 -88 10
-110 6 -49 12 -120 20 -240 3 -49 8 -108 10 -130 3 -22 7 -92 11 -155 3 -63 7
-142 9 -175 24 -410 25 -1243 1 -1605 -2 -30 -7 -104 -11 -165 -3 -60 -8 -126
-10 -145 -2 -19 -6 -77 -10 -128 -3 -52 -8 -101 -10 -110 -1 -10 -6 -55 -10
-101 -4 -47 -8 -92 -10 -102 -2 -10 -6 -46 -10 -81 -3 -35 -8 -74 -10 -88 -2
-14 -6 -47 -9 -75 -4 -27 -8 -61 -11 -75 -2 -14 -7 -47 -10 -75 -3 -27 -7 -61
-10 -75 -2 -14 -7 -43 -10 -65 -3 -22 -17 -110 -31 -195 -14 -85 -27 -165 -29
-177 -2 -12 -6 -34 -9 -50 -4 -15 -8 -39 -11 -53 -3 -14 -7 -36 -10 -50 -2
-14 -7 -38 -10 -55 -3 -16 -7 -41 -10 -55 -3 -14 -12 -59 -21 -100 -8 -41 -17
-85 -20 -97 -2 -12 -20 -93 -40 -180 -20 -87 -38 -169 -40 -183 -8 -40 -130
-512 -170 -655 -19 -71 -42 -152 -49 -180 -27 -96 -83 -291 -120 -415 -21 -69
-54 -183 -75 -255 -49 -165 -107 -361 -119 -400 -14 -44 -121 -421 -138 -485
-8 -30 -30 -116 -50 -190 -19 -74 -36 -142 -38 -150 -2 -8 -15 -64 -29 -125
-32 -141 -76 -350 -81 -384 -2 -15 -10 -65 -18 -111 -9 -47 -19 -107 -23 -135
-4 -27 -8 -57 -9 -65 -1 -8 -5 -40 -9 -70 -3 -30 -8 -64 -10 -75 -2 -11 -7
-58 -11 -105 -3 -47 -8 -101 -10 -120 -21 -215 -21 -618 0 -857 2 -21 6 -69
10 -108 3 -38 8 -81 10 -95 3 -14 7 -47 10 -75 3 -27 10 -72 15 -100 5 -27 11
-66 14 -85 19 -128 92 -449 146 -635 229 -791 638 -1642 1242 -2584 134 -209
209 -303 357 -451 434 -432 1033 -705 1941 -884 159 -32 334 -64 385 -71 32
-4 99 -15 121 -19 11 -2 47 -8 79 -12 33 -4 62 -8 65 -9 3 -1 30 -5 60 -9 30
-4 78 -11 105 -16 28 -5 74 -12 104 -15 30 -4 63 -9 75 -11 12 -2 40 -6 64 -9
24 -3 105 -14 180 -25 75 -10 155 -22 177 -25 44 -6 89 -13 120 -19 11 -2 47
-7 80 -11 32 -4 68 -9 79 -11 11 -2 38 -6 61 -10 171 -25 635 -135 1140 -269
318 -85 649 -190 770 -245 39 -17 70 -30 71 -28 0 2 8 -3 17 -10 9 -8 56 -34
104 -59 63 -32 111 -67 168 -122 85 -81 163 -143 258 -206 50 -34 61 -37 78
-27 11 7 24 10 29 7 6 -4 13 1 16 10 4 9 31 31 61 48 30 18 65 39 78 47 142
90 203 123 273 149 45 17 102 40 126 51 25 11 47 20 50 20 15 0 366 170 506
245 47 26 117 60 155 77 279 122 713 350 1025 538 181 109 588 382 610 410 3
3 21 17 40 30 31 21 124 94 199 155 436 356 823 788 1060 1185 34 58 67 112
72 120 5 8 42 80 83 160 199 392 351 804 459 1250 28 113 92 445 101 522 3 26
8 62 11 80 12 90 13 100 30 273 26 273 26 758 0 1085 -4 41 -9 91 -21 195 -6
52 -23 182 -29 220 -12 72 -15 92 -21 129 -3 21 -8 48 -10 60 -2 11 -11 59
-20 106 -30 166 -137 484 -244 725 -10 22 -41 94 -70 160 -29 66 -64 145 -77
175 -14 30 -51 114 -83 185 -32 72 -71 160 -88 196 -64 138 -205 467 -287 666
-47 115 -90 216 -95 225 -6 10 -10 22 -10 28 0 6 -9 29 -19 53 -58 129 -217
593 -292 852 -16 55 -33 114 -38 130 -25 81 -109 434 -136 575 -11 60 -35 191
-40 220 -3 19 -7 46 -10 60 -5 27 -13 85 -20 146 -3 22 -7 50 -10 64 -2 14 -7
50 -10 80 -2 30 -7 82 -10 115 -34 351 -38 810 -10 1095 2 19 6 67 10 105 4
39 8 84 11 100 2 17 6 54 10 84 3 30 8 64 10 75 2 11 6 38 9 61 6 36 49 274
61 335 14 69 69 289 100 398 133 476 360 1016 619 1477 16 28 36 64 45 80 158
282 431 686 699 1035 80 104 341 423 360 440 3 3 21 23 40 45 50 59 185 208
271 298 41 44 89 94 105 112 17 18 86 89 155 159 l125 127 -80 -42 c-261 -138
-648 -360 -830 -477 -119 -76 -349 -226 -360 -235 -5 -4 -77 -55 -160 -113
-278 -197 -578 -430 -780 -605 -43 -37 -213 -187 -259 -229 -363 -325 -826
-814 -1123 -1188 -43 -53 -80 -99 -83 -102 -23 -23 -174 -221 -286 -375 -213
-293 -513 -753 -656 -1005 -105 -185 -167 -297 -219 -394 -97 -181 -310 -617
-399 -816 -45 -102 -88 -197 -95 -212 -7 -15 -16 -41 -20 -58 -4 -16 -10 -32
-14 -35 -8 -5 -17 18 -150 415 -135 404 -282 885 -346 1135 -5 17 -9 35 -11
40 -62 219 -184 709 -230 925 -4 19 -9 40 -10 45 -28 123 -74 341 -88 415 -3
14 -10 50 -16 80 -6 30 -13 69 -16 85 -3 17 -12 66 -20 110 -9 44 -24 130 -34
190 -11 61 -21 119 -23 130 -3 11 -8 42 -11 68 -4 27 -9 57 -11 66 -2 10 -6
42 -10 71 -4 29 -9 62 -11 74 -8 42 -48 333 -59 436 -3 25 -8 61 -10 80 -3 19
-7 55 -10 80 -2 25 -7 63 -9 85 -3 22 -8 72 -11 110 -4 39 -8 81 -10 95 -3 14
-7 62 -10 108 -3 45 -8 99 -10 120 -3 33 -11 151 -21 297 -26 412 -26 1186 1
1550 11 151 32 387 40 450 2 17 9 73 15 125 6 52 13 106 15 120 2 14 7 45 10
70 9 68 12 83 39 245 33 192 36 207 42 217 3 4 1 8 -5 8 -5 0 -30 -26 -54 -57z"/>
</g>
</svg>
